name analog
datacolumns 19
datarows 51
range 0.38 0.405
endheader
time	ground_force_vx	ground_force_vy	ground_force_vz	ground_force_px	ground_force_py	ground_force_pz	l_ground_force_vx	l_ground_force_vy	l_ground_force_vz	l_ground_force_px	l_ground_force_py	l_ground_force_pz	ground_torque_x	ground_torque_y	ground_torque_z	l_ground_torque_x	l_ground_torque_y	l_ground_torque_z
0.38	-0.0	-0.0	-0.0	-0.3244467973709106	36.51906967163086	-262.6051025390625	0.8243143558502197	-31.568883895874023	-224.08908081054688	-0.0	-0.0	-0.0	-0.0	-0.0	-0.0	62285.640625	-13723.3916015625	923.4111938476562
0.3805	-0.0	-0.0	-0.0	-0.0566974580287933	37.0540885925293	-263.1190795898437	0.1605291813611984	-31.19014358520508	-224.35479736328125	-0.0	-0.0	-0.0	-0.0	-0.0	-0.0	62607.45703125	-13837.30078125	804.4183349609375
0.381	-0.0	-0.0	-0.0	0.0	36.88367462158203	-263.63153076171875	-0.1265351325273513	-31.429515838623047	-224.7201232910156	-0.0	-0.0	-0.0	-0.0	-0.0	-0.0	62595.6484375	-13900.12890625	785.8798217773438
0.3815	-0.0	-0.0	-0.0	0.1948235929012298	37.64580535888672	-265.3965148925781	-0.156861275434494	-31.0722713470459	-225.1357269287109	-0.0	-0.0	-0.0	-0.0	-0.0	-0.0	62654.71875	-14114.3056640625	815.7139892578125
0.382	-0.0	-0.0	-0.0	0.3897649049758911	37.81463623046875	-263.3145751953125	-0.5151685476303101	-31.231834411621094	-224.57177734375	-0.0	-0.0	-0.0	-0.0	-0.0	-0.0	62703.62890625	-14248.181640625	733.3017578125
0.3825	-0.0	-0.0	-0.0	0.8028945922851562	37.26652526855469	-262.5833435058594	-0.7497203946113586	-31.07213592529297	-225.7659149169922	-0.0	-0.0	-0.0	-0.0	-0.0	-0.0	62614.5	-14258.8310546875	620.2619018554688
0.383	-0.0	-0.0	-0.0	0.8921051025390625	37.75810623168945	-264.2443542480469	-1.1729856729507446	-31.10639953613281	-226.39581298828125	-0.0	-0.0	-0.0	-0.0	-0.0	-0.0	62866.22265625	-14235.2978515625	578.7802124023438
0.3835	-0.0	-0.0	-0.0	0.4235070645809173	37.68551254272461	-266.231689453125	-1.2960619926452637	-31.037561416625977	-225.12599182128903	-0.0	-0.0	-0.0	-0.0	-0.0	-0.0	62755.40234375	-14510.71484375	507.0531921386719
0.384	-0.0	-0.0	-0.0	0.4293085932731628	37.72437286376953	-267.9527282714844	-1.0453271865844729	-31.10835075378418	-227.1537322998047	-0.0	-0.0	-0.0	-0.0	-0.0	-0.0	62881.56640625	-14788.4423828125	370.5665283203125
0.3845	-0.0	-0.0	-0.0	0.8365002870559692	37.46834564208984	-267.070556640625	-1.612697720527649	-31.317955017089844	-226.94854736328125	-0.0	-0.0	-0.0	-0.0	-0.0	-0.0	63289.11328125	-14854.015625	287.5386657714844
0.385	-0.0	-0.0	-0.0	0.9258509874343872	37.88526153564453	-267.4048156738281	-1.756710171699524	-31.355377197265625	-226.5258331298828	-0.0	-0.0	-0.0	-0.0	-0.0	-0.0	63501.95703125	-15199.5947265625	186.3316192626953
0.3855	-0.0	-0.0	-0.0	1.193634271621704	37.64689636230469	-268.1483459472656	-2.129058837890625	-30.948400497436523	-228.55908203125	-0.0	-0.0	-0.0	-0.0	-0.0	-0.0	63388.76953125	-15335.384765625	234.08575439453125
0.386	-0.0	-0.0	-0.0	1.682163953781128	37.72332000732422	-270.1318359375	-2.2172560691833496	-30.877466201782227	-228.90460205078125	-0.0	-0.0	-0.0	-0.0	-0.0	-0.0	63569.9765625	-15479.767578125	97.26773071289062
0.3865	-0.0	-0.0	-0.0	1.6816978454589844	37.5884017944336	-269.4086608886719	-2.4483413696289062	-30.629859924316406	-229.39260864257807	-0.0	-0.0	-0.0	-0.0	-0.0	-0.0	63582.88671875	-15748.7646484375	109.1349105834961
0.387	-0.0	-0.0	-0.0	1.9832268953323364	37.91469955444336	-269.1910095214844	-2.4839019775390625	-31.1069393157959	-229.2526092529297	-0.0	-0.0	-0.0	-0.0	-0.0	-0.0	63701.49609375	-15983.4609375	8.102293968200684
0.3875	-0.0	-0.0	-0.0	2.4603214263916016	37.935157775878906	-270.9014892578125	-2.413034439086914	-31.071971893310547	-228.7645263671875	-0.0	-0.0	-0.0	-0.0	-0.0	-0.0	64108.4765625	-16340.1484375	67.45053100585938
0.388	-0.0	-0.0	-0.0	2.963996410369873	37.935001373291016	-269.260009765625	-1.8458973169326784	-31.001798629760746	-230.0203857421875	-0.0	-0.0	-0.0	-0.0	-0.0	-0.0	64092.6953125	-16483.466796875	156.81216430664062
0.3885	-0.0	-0.0	-0.0	3.248713493347168	38.128055572509766	-271.66412353515625	-1.437360763549805	-30.858861923217773	-230.5108642578125	-0.0	-0.0	-0.0	-0.0	-0.0	-0.0	64441.17578125	-16728.154296875	175.13893127441406
0.389	-0.0	-0.0	-0.0	3.6402108669281006	37.95425796508789	-272.1031799316406	-0.7473235130310059	-31.07126235961914	-231.91375732421875	-0.0	-0.0	-0.0	-0.0	-0.0	-0.0	64941.7109375	-17062.388671875	489.8294067382813
0.3895	-0.0	-0.0	-0.0	4.014472961425781	37.95381546020508	-271.526123046875	0.1573947072029113	-31.036998748779297	-232.0431671142578	-0.0	-0.0	-0.0	-0.0	-0.0	-0.0	64756.5546875	-17487.2421875	609.11328125
0.39	-0.0	-0.0	-0.0	4.638946533203125	37.82778549194336	-269.89898681640625	0.6892523765563965	-30.91259002685547	-234.8897857666016	-0.0	-0.0	-0.0	-0.0	-0.0	-0.0	64909.2421875	-17668.61328125	846.8128051757812
0.3905	-0.0	-0.0	-0.0	4.5320963859558105	37.61302947998047	-272.0224304199219	1.2393215894699097	-31.12299156188965	-233.79812622070312	-0.0	-0.0	-0.0	-0.0	-0.0	-0.0	65316.1484375	-17985.8828125	971.8895263671876
0.391	-0.0	-0.0	-0.0	4.74585485458374	37.13129425048828	-270.67596435546875	1.5755510330200195	-30.860759735107425	-233.78732299804688	-0.0	-0.0	-0.0	-0.0	-0.0	-0.0	65552.015625	-18107.55859375	1061.187255859375
0.3915	-0.0	-0.0	-0.0	4.746784210205078	37.66668701171875	-271.2421875	1.3826075792312622	-30.809154510498047	-235.0513916015625	-0.0	-0.0	-0.0	-0.0	-0.0	-0.0	65591.0078125	-18292.38671875	1136.69091796875
0.392	-0.0	-0.0	-0.0	4.2999372482299805	37.82692337036133	-268.84033203125	1.4711638689041138	-31.45732688903809	-235.32818603515625	-0.0	-0.0	-0.0	-0.0	-0.0	-0.0	65495.078125	-18403.712890625	1102.9710693359375
0.3925	-0.0	-0.0	-0.0	3.8718535900115967	37.93349075317383	-270.1129455566406	1.3452622890472412	-31.508485794067383	-235.6773376464844	-0.0	-0.0	-0.0	-0.0	-0.0	-0.0	65797.796875	-18468.712890625	990.4533081054688
0.393	-0.0	-0.0	-0.0	4.138399600982666	37.48801040649414	-269.54742431640625	1.1904196739196775	-31.26165771484375	-235.27169799804688	-0.0	-0.0	-0.0	-0.0	-0.0	-0.0	65508.8359375	-18526.099609375	971.8195190429688
0.3935	-0.0	-0.0	-0.0	3.9442737102508554	37.68414306640625	-269.6152648925781	1.0831924676895142	-31.391361236572266	-236.24685668945312	-0.0	-0.0	-0.0	-0.0	-0.0	-0.0	65898.8125	-18832.00390625	938.884765625
0.394	-0.0	-0.0	-0.0	3.8360519409179688	37.48645782470703	-269.8960876464844	1.2606747150421145	-31.466047286987305	-237.69854736328125	-0.0	-0.0	-0.0	-0.0	-0.0	-0.0	66272.0625	-19038.9765625	920.3915405273438
0.3945	-0.0	-0.0	-0.0	4.564575672149658	37.64601516723633	-267.7170104980469	1.1667470932006836	-31.64315414428711	-238.5445556640625	-0.0	-0.0	-0.0	-0.0	-0.0	-0.0	66394.1015625	-18946.529296875	1066.984619140625
0.395	-0.0	-0.0	-0.0	4.728157043457031	37.39630889892578	-269.6929931640625	1.3872675895690918	-32.22423553466797	-240.34266662597656	-0.0	-0.0	-0.0	-0.0	-0.0	-0.0	66673.5	-19304.142578125	1213.453369140625
0.3955	-0.0	-0.0	-0.0	4.744158744812012	37.16738128662109	-269.6845397949219	1.8759303092956543	-32.571861267089844	-239.34115600585935	-0.0	-0.0	-0.0	-0.0	-0.0	-0.0	66838.015625	-19522.51171875	1279.2919921875
0.396	-0.0	-0.0	-0.0	4.743847846984863	36.54346466064453	-269.6111755371094	2.021343946456909	-32.508663177490234	-241.38851928710935	-0.0	-0.0	-0.0	-0.0	-0.0	-0.0	67010.3046875	-19846.486328125	1364.0811767578125
0.3965	-0.0	-0.0	-0.0	4.641926288604736	36.758567810058594	-267.3690185546875	2.2874186038970947	-32.97537612915039	-243.0585784912109	-0.0	-0.0	-0.0	-0.0	-0.0	-0.0	67390.8984375	-20018.212890625	1482.8271484375
0.397	-0.0	-0.0	-0.0	4.709649085998535	36.73689270019531	-269.1832275390625	2.6108760833740234	-33.070404052734375	-242.9342193603516	-0.0	-0.0	-0.0	-0.0	-0.0	-0.0	67386.8828125	-19900.982421875	1656.9661865234375
0.3975	-0.0	-0.0	-0.0	5.222544193267822	36.36520385742188	-268.0046691894531	2.9585464000701904	-33.70063781738281	-243.31190490722656	-0.0	-0.0	-0.0	-0.0	-0.0	-0.0	67775.3359375	-19985.556640625	1724.4547119140625
0.398	-0.0	-0.0	-0.0	5.118283271789551	35.93817901611328	-269.46044921875	2.8889265060424805	-34.06139373779297	-244.3602752685547	-0.0	-0.0	-0.0	-0.0	-0.0	-0.0	67905.03125	-20338.251953125	1809.3515625
0.3985	-0.0	-0.0	-0.0	5.371350288391113	35.53001022338867	-266.7991027832031	3.4710633754730225	-34.16123962402344	-246.0757598876953	-0.0	-0.0	-0.0	-0.0	-0.0	-0.0	68132.7578125	-20333.2890625	1842.104736328125
0.399	-0.0	-0.0	-0.0	5.211785316467285	35.66621017456055	-267.8591613769531	3.4680581092834477	-34.456485748291016	-246.50103759765625	-0.0	-0.0	-0.0	-0.0	-0.0	-0.0	68304.0546875	-20356.787109375	1964.5220947265625
0.3995	-0.0	-0.0	-0.0	5.296091079711914	35.511558532714844	-268.6754455566406	3.360171318054199	-34.45405197143555	-246.81622314453125	-0.0	-0.0	-0.0	-0.0	-0.0	-0.0	68258.875	-20357.240234375	2027.437744140625
0.4	-0.0	-0.0	-0.0	4.728157043457031	34.92021179199219	-267.8923034667969	3.903274536132813	-34.71193313598633	-247.24078369140625	-0.0	-0.0	-0.0	-0.0	-0.0	-0.0	68236.6171875	-20339.966796875	2043.792724609375
0.4005	-0.0	-0.0	-0.0	4.428262710571289	35.035823822021484	-265.185546875	3.991985321044922	-34.66212463378906	-246.8540954589844	-0.0	-0.0	-0.0	-0.0	-0.0	-0.0	68183.0703125	-20665.318359375	2073.62939453125
0.401	-0.0	-0.0	-0.0	3.988473415374756	34.34028625488281	-265.7936706542969	3.942620754241944	-34.31796646118164	-245.18185424804688	-0.0	-0.0	-0.0	-0.0	-0.0	-0.0	67986.421875	-20396.658203125	2004.6634521484373
0.4015	-0.0	-0.0	-0.0	3.625805377960205	34.68441390991211	-264.65777587890625	3.912992000579834	-34.465118408203125	-246.8501892089844	-0.0	-0.0	-0.0	-0.0	-0.0	-0.0	68274.609375	-20372.072265625	2034.2437744140625
0.402	-0.0	-0.0	-0.0	4.256195068359375	34.50018310546875	-263.47222900390625	4.109988212585449	-34.67098617553711	-248.4400329589844	-0.0	-0.0	-0.0	-0.0	-0.0	-0.0	68177.0234375	-20599.6796875	2073.771240234375
0.4025	-0.0	-0.0	-0.0	3.848205089569092	34.06706237792969	-263.5203857421875	3.794680118560791	-35.1124382019043	-247.89764404296875	-0.0	-0.0	-0.0	-0.0	-0.0	-0.0	68575.5234375	-20558.87890625	2063.614013671875
0.403	-0.0	-0.0	-0.0	3.498542308807373	33.86955261230469	-262.16558837890625	3.539525032043457	-34.72142028808594	-247.54849243164065	-0.0	-0.0	-0.0	-0.0	-0.0	-0.0	68406.921875	-20805.591796875	2113.18798828125
0.4035	-0.0	-0.0	-0.0	3.727450370788574	33.7687873840332	-263.3954772949219	3.4910669326782227	-34.8784294128418	-248.64056396484372	-0.0	-0.0	-0.0	-0.0	-0.0	-0.0	68791.2265625	-20680.12109375	2073.006591796875
0.404	-0.0	-0.0	-0.0	3.3786637783050537	34.11749649047852	-262.5024719238281	3.391096591949463	-35.2403564453125	-248.87925720214844	-0.0	-0.0	-0.0	-0.0	-0.0	-0.0	69067.0390625	-20730.7890625	2106.324462890625
0.4045	-0.0	-0.0	-0.0	3.3398423194885254	34.34580993652344	-260.9120788574219	3.0483226776123047	-35.10382461547852	-250.3096923828125	-0.0	-0.0	-0.0	-0.0	-0.0	-0.0	69258.5703125	-20730.951171875	2017.142578125
0.405	-0.0	-0.0	-0.0	3.359579801559448	33.65213394165039	-261.4388427734375	3.0970242023468018	-35.70990753173828	-252.4366149902344	-0.0	-0.0	-0.0	-0.0	-0.0	-0.0	69644.5703125	-21182.310546875	2057.603271484375
